<svg xmlns="http://www.w3.org/2000/svg" xmlns:xlink="http://www.w3.org/1999/xlink" width="40.535" height="40.535" viewBox="0 0 40.535 40.535">
  <defs>
    <clipPath id="clip-path">
      <path id="Caminho_685" data-name="Caminho 685" d="M78.274-.805h40.535V-41.34H78.274Z" fill="none"/>
    </clipPath>
  </defs>
  <g id="ico_imagemampliada" transform="translate(-1084.952 -101.949)">
    <g id="Grupo_529" data-name="Grupo 529" transform="translate(1006.677 143.289)" clip-path="url(#clip-path)">
      <g id="Grupo_528" data-name="Grupo 528" transform="translate(98.542 -0.805)">
        <path id="Caminho_684" data-name="Caminho 684" d="M0,0A20.268,20.268,0,0,0,20.268-20.268,20.268,20.268,0,0,0,0-40.536,20.268,20.268,0,0,0-20.268-20.268,20.268,20.268,0,0,0,0,0"/>
      </g>
    </g>
    <g id="Grupo_530" data-name="Grupo 530" transform="translate(1091.849 129.171)">
      <path id="Caminho_686" data-name="Caminho 686" d="M0,0H26.739V-18.072H0Z" fill="none" stroke="#fff" stroke-width="1.386"/>
    </g>
    <g id="Grupo_533" data-name="Grupo 533" transform="translate(1006.677 143.289)" clip-path="url(#clip-path)">
      <g id="Grupo_531" data-name="Grupo 531" transform="translate(98.272 -12.491)">
        <path id="Caminho_687" data-name="Caminho 687" d="M0,0A8.068,8.068,0,0,0,8.068-8.068,8.068,8.068,0,0,0,0-16.136,8.068,8.068,0,0,0-8.068-8.068,8.068,8.068,0,0,0,0,0M6.318-2.933,4.6-1.387l6.675,6.6,1.863-1.864Z"/>
      </g>
      <g id="Grupo_532" data-name="Grupo 532" transform="translate(98.272 -12.491)">
        <path id="Caminho_688" data-name="Caminho 688" d="M0,0A8.068,8.068,0,0,0,8.068-8.068,8.068,8.068,0,0,0,0-16.136,8.068,8.068,0,0,0-8.068-8.068,8.068,8.068,0,0,0,0,0ZM6.318-2.933,4.6-1.387l6.675,6.6,1.863-1.864Z" fill="none" stroke="#fff" stroke-width="1.212"/>
      </g>
    </g>
    <g id="Grupo_534" data-name="Grupo 534" transform="translate(1108.07 123.012)">
      <path id="Caminho_690" data-name="Caminho 690" d="M0,0V-.838H-2.63V-3.415H-3.6V-.838H-6.24V0H-3.6V2.849h.967V0Z" fill="#fff"/>
    </g>
  </g>
</svg>
