<svg xmlns="http://www.w3.org/2000/svg" xmlns:xlink="http://www.w3.org/1999/xlink" width="13.546" height="12.093" viewBox="0 0 13.546 12.093">
  <defs>
    <clipPath id="clip-path">
      <path id="Caminho_565" data-name="Caminho 565" d="M21.756-188.348H35.3v-12.093H21.756Z" fill="none"/>
    </clipPath>
  </defs>
  <g id="ico_track" transform="translate(-21.756 200.441)" clip-path="url(#clip-path)">
    <g id="Grupo_450" data-name="Grupo 450" transform="translate(33.206 -194.504)">
      <path id="Caminho_563" data-name="Caminho 563" d="M0,0A4.818,4.818,0,0,0,.035-.566,4.962,4.962,0,0,0-4.677-5.561,4.962,4.962,0,0,0-9.389-.566,4.818,4.818,0,0,0-9.354,0a3.042,3.042,0,0,0-1.721,2.738A3.043,3.043,0,0,0-8.031,5.781a.552.552,0,0,0,.55-.55V.245c0-.3-.443-.574-.6-.55.34-2.241,1.5-3.9,3.4-3.9s3.054,1.656,3.394,3.9c-.155-.024,0,0-.04,0a.55.55,0,0,0-.55.551V5.231a.552.552,0,0,0,.55.55A3.043,3.043,0,0,0,1.721,2.738,3.041,3.041,0,0,0,0,0" fill="#8345a3"/>
    </g>
    <g id="Grupo_451" data-name="Grupo 451" transform="translate(33.206 -194.504)">
      <path id="Caminho_564" data-name="Caminho 564" d="M0,0A4.818,4.818,0,0,0,.035-.566,4.962,4.962,0,0,0-4.677-5.561,4.962,4.962,0,0,0-9.389-.566,4.818,4.818,0,0,0-9.354,0a3.042,3.042,0,0,0-1.721,2.738A3.043,3.043,0,0,0-8.031,5.781a.552.552,0,0,0,.55-.55V.245c0-.3-.443-.574-.6-.55.34-2.241,1.5-3.9,3.4-3.9s3.054,1.656,3.394,3.9c-.155-.024,0,0-.04,0a.55.55,0,0,0-.55.551V5.231a.552.552,0,0,0,.55.55A3.043,3.043,0,0,0,1.721,2.738,3.041,3.041,0,0,0,0,0Z" fill="none" stroke="#2b2e34" stroke-linecap="round" stroke-linejoin="round" stroke-width="0.75"/>
    </g>
  </g>
</svg>
