<svg xmlns="http://www.w3.org/2000/svg" xmlns:xlink="http://www.w3.org/1999/xlink" width="40.535" height="40.535" viewBox="0 0 40.535 40.535">
  <defs>
    <clipPath id="clip-path">
      <path id="Caminho_692" data-name="Caminho 692" d="M151.6-.805h40.535V-41.34H151.6Z" fill="none"/>
    </clipPath>
  </defs>
  <g id="ico_infografico" transform="translate(-1158.281 -101.949)">
    <g id="Grupo_536" data-name="Grupo 536" transform="translate(1006.677 143.289)" clip-path="url(#clip-path)">
      <g id="Grupo_535" data-name="Grupo 535" transform="translate(171.872 -0.805)">
        <path id="Caminho_691" data-name="Caminho 691" d="M0,0A20.268,20.268,0,0,0,20.268-20.268,20.268,20.268,0,0,0,0-40.536,20.268,20.268,0,0,0-20.268-20.268,20.268,20.268,0,0,0,0,0"/>
      </g>
    </g>
    <g id="Grupo_537" data-name="Grupo 537" transform="translate(1164.719 131.564)">
      <path id="Caminho_693" data-name="Caminho 693" d="M0,0H27.661V-18.7H0Z" fill="none" stroke="#fff" stroke-width="1.386"/>
    </g>
    <path id="Caminho_694" data-name="Caminho 694" d="M160.464-22.758h9.561v-5.306h-9.561Z" transform="translate(1006.677 143.289)" fill="#fff"/>
    <g id="Grupo_538" data-name="Grupo 538" transform="translate(1167.142 120.531)">
      <path id="Caminho_695" data-name="Caminho 695" d="M0,0H9.561V-5.306H0Z" fill="none" stroke="#fff" stroke-width="0.594"/>
    </g>
    <path id="Caminho_696" data-name="Caminho 696" d="M160.464-14.188h3.523v-6.157h-3.523Z" transform="translate(1006.677 143.289)" fill="#fff"/>
    <g id="Grupo_539" data-name="Grupo 539" transform="translate(1167.142 129.101)">
      <path id="Caminho_697" data-name="Caminho 697" d="M0,0H3.523V-6.157H0Z" fill="none" stroke="#fff" stroke-width="0.594"/>
    </g>
    <path id="Caminho_698" data-name="Caminho 698" d="M166.46-14.188h3.523v-6.157H166.46Z" transform="translate(1006.677 143.289)" fill="#fff"/>
    <g id="Grupo_540" data-name="Grupo 540" transform="translate(1173.138 129.101)">
      <path id="Caminho_699" data-name="Caminho 699" d="M0,0H3.523V-6.157H0Z" fill="none" stroke="#fff" stroke-width="0.594"/>
    </g>
    <g id="Grupo_545" data-name="Grupo 545" transform="translate(1006.677 143.289)" clip-path="url(#clip-path)">
      <g id="Grupo_541" data-name="Grupo 541" transform="translate(174.76 -22.565)">
        <path id="Caminho_700" data-name="Caminho 700" d="M0,0A2.73,2.73,0,0,0,2.729-2.729,2.73,2.73,0,0,0,0-5.459a2.73,2.73,0,0,0-2.729,2.73A2.73,2.73,0,0,0,0,0" fill="#fff"/>
      </g>
      <g id="Grupo_542" data-name="Grupo 542" transform="translate(174.639 -14.543)">
        <path id="Caminho_701" data-name="Caminho 701" d="M0,0A2.73,2.73,0,0,0,2.729-2.729,2.73,2.73,0,0,0,0-5.459a2.73,2.73,0,0,0-2.729,2.73A2.73,2.73,0,0,0,0,0" fill="#fff"/>
      </g>
      <g id="Grupo_543" data-name="Grupo 543" transform="translate(181.203 -22.565)">
        <path id="Caminho_702" data-name="Caminho 702" d="M0,0A2.73,2.73,0,0,0,2.729-2.729,2.73,2.73,0,0,0,0-5.459a2.73,2.73,0,0,0-2.729,2.73A2.73,2.73,0,0,0,0,0" fill="#fff"/>
      </g>
      <g id="Grupo_544" data-name="Grupo 544" transform="translate(181.081 -14.543)">
        <path id="Caminho_703" data-name="Caminho 703" d="M0,0A2.73,2.73,0,0,0,2.729-2.729,2.73,2.73,0,0,0,0-5.459a2.73,2.73,0,0,0-2.729,2.73A2.73,2.73,0,0,0,0,0" fill="#fff"/>
      </g>
    </g>
  </g>
</svg>
