<svg xmlns="http://www.w3.org/2000/svg" xmlns:xlink="http://www.w3.org/1999/xlink" width="40.535" height="40.535" viewBox="0 0 40.535 40.535">
  <defs>
    <clipPath id="clip-path">
      <path id="Caminho_728" data-name="Caminho 728" d="M370.11-.805h40.535V-41.34H370.11Z" fill="none"/>
    </clipPath>
  </defs>
  <g id="ico_video" transform="translate(-1376.787 -101.949)">
    <g id="Grupo_569" data-name="Grupo 569" transform="translate(1006.677 143.289)" clip-path="url(#clip-path)">
      <g id="Grupo_563" data-name="Grupo 563" transform="translate(390.378 -0.805)">
        <path id="Caminho_722" data-name="Caminho 722" d="M0,0A20.268,20.268,0,0,0,20.268-20.268,20.268,20.268,0,0,0,0-40.536,20.268,20.268,0,0,0-20.268-20.268,20.268,20.268,0,0,0,0,0"/>
      </g>
      <g id="Grupo_564" data-name="Grupo 564" transform="translate(383.03 -29.608)">
        <path id="Caminho_723" data-name="Caminho 723" d="M0,0A3.422,3.422,0,0,0,3.422-3.422,3.421,3.421,0,0,0,0-6.843,3.421,3.421,0,0,0-3.422-3.422,3.422,3.422,0,0,0,0,0Z" fill="none" stroke="#fff" stroke-width="1.958"/>
      </g>
      <g id="Grupo_565" data-name="Grupo 565" transform="translate(390.054 -29.687)">
        <path id="Caminho_724" data-name="Caminho 724" d="M0,0A2.884,2.884,0,0,0,2.884-2.884,2.885,2.885,0,0,0,0-5.769,2.885,2.885,0,0,0-2.884-2.884,2.884,2.884,0,0,0,0,0Z" fill="none" stroke="#fff" stroke-width="1.958"/>
      </g>
      <g id="Grupo_566" data-name="Grupo 566" transform="translate(378.802 -29.67)">
        <path id="Caminho_725" data-name="Caminho 725" d="M0,0A4.537,4.537,0,0,0-4.538,4.537V15.883A4.537,4.537,0,0,0,0,20.42H15.882a4.537,4.537,0,0,0,4.538-4.537V4.537A4.537,4.537,0,0,0,15.882,0Z" fill="#fff"/>
      </g>
      <g id="Grupo_567" data-name="Grupo 567" transform="translate(406.492 -25.015)">
        <path id="Caminho_726" data-name="Caminho 726" d="M0,0A2.246,2.246,0,0,0-.161-1.086C.072-1.4,0-1.435-.322-1.172l-4.636,3.8H-7.709a2.411,2.411,0,0,0-1.2.218c-.111-.315-.2-.218-.2.218V8.709h3.747c.083-.124.4,0,.715.276l2.169,1.926A14.227,14.227,0,0,0-.156,12.758c.086.392.156.356.156-.079Z" fill="#fff"/>
      </g>
      <g id="Grupo_568" data-name="Grupo 568" transform="translate(385.719 -24.43)">
        <path id="Caminho_727" data-name="Caminho 727" d="M0,0C-1.955-1.029-3.539-.072-3.539,2.137V9.7c0,1.656,1.188,2.375,2.654,1.6l5.87-3.09c2.932-1.543,2.932-4.047,0-5.59Z"/>
      </g>
    </g>
  </g>
</svg>
