<svg xmlns="http://www.w3.org/2000/svg" width="609.448" height="112.252" viewBox="0 0 609.448 112.252">
  <g id="pv_conexoes" transform="translate(0 112.252)">
    <path id="Caminho_603" data-name="Caminho 603" d="M0-86.439H609.448v-25.813H0Z" fill="#a09dd0"/>
    <g id="Grupo_463" data-name="Grupo 463" transform="translate(100.375 -112.252)">
      <path id="Caminho_604" data-name="Caminho 604" d="M0,0-14.875,14.875h-78l-7.5-7.5v66h66L4.5,112.252H316.747l38.879-38.877h78l19.5-19.5h55.947V0Z" fill="#5b54ab"/>
    </g>
    <g id="Grupo_464" data-name="Grupo 464" transform="translate(190.485 -112.252)">
      <path id="Caminho_605" data-name="Caminho 605" d="M0,0-3.938,3.938h-78l-19.5,19.5h-89.048v2.375h90.031l19.5-19.5h78L3.359,0Z" fill="#ffb52f"/>
    </g>
    <g id="Grupo_465" data-name="Grupo 465" transform="translate(471.109 -69.488)">
      <path id="Caminho_606" data-name="Caminho 606" d="M0,0-58.639,58.5h-302.94l-39-39h-70.532v2.375h69.547l39,39h304.9L.982,2.375H138.338V0Z" fill="#ffb52f"/>
    </g>
    <g id="Grupo_466" data-name="Grupo 466" transform="translate(541.981 -112.252)">
      <path id="Caminho_607" data-name="Caminho 607" d="M0,0,29,29H67.467V19.25H33.039L13.789,0ZM-419.751,0-458.5,38.749h-83.481V48.5h87.52l48.5-48.5Z" fill="#262387"/>
    </g>
    <path id="Caminho_608" data-name="Caminho 608" d="M116.7-18.9h-4.875V-38.4H116.7Zm9.75,0h-4.875V-38.4h4.875Zm9.75,0h-4.875V-38.4H136.2Zm9.75,0h-4.875V-38.4h4.875Zm9.75,0h-4.875V-38.4H155.7Zm9.75,0h-4.875V-38.4h4.875Zm9.75,0h-4.875V-38.4H175.2Z" fill="#262387"/>
  </g>
</svg>
