<svg xmlns="http://www.w3.org/2000/svg" xmlns:xlink="http://www.w3.org/1999/xlink" width="670" height="131" viewBox="0 0 670 131">
  <defs>
    <clipPath id="clip-path">
      <rect id="Retângulo_63" data-name="Retângulo 63" width="670" height="131" transform="translate(118 2012)" fill="#fff" stroke="#707070" stroke-width="1"/>
    </clipPath>
  </defs>
  <g id="pv_sec5" transform="translate(-118 -2012)" clip-path="url(#clip-path)">
    <g id="pv_sec5-2" data-name="pv_sec5">
      <path id="Caminho_639" data-name="Caminho 639" d="M10,0H-398.976v121.89h39.684l21.55-61.122H10.383L19.051,72.9H154.063l22.252-29.233,144.157-.207V0H10Z" transform="translate(476.059 2021.045)" fill="#ffb52f"/>
      <path id="Caminho_640" data-name="Caminho 640" d="M0,0H-396.85V124.725H-361.5l21.634-60.415H15.343l9.023,11.429H153.425l23-29.439H322.6V0Z" transform="translate(473.933 2012.541)" fill="#3b389d"/>
      <path id="Caminho_641" data-name="Caminho 641" d="M0,0V98.875H21.26L43.937,36.513H149.764L185.925.353,186.378,0Z" transform="translate(77 2012.082)" fill="#665eb0"/>
      <path id="Caminho_642" data-name="Caminho 642" d="M396.174-66.168H391.3v-19.5h4.875Zm-9.75,0h-4.875v-19.5h4.875Zm-9.75,0H371.8v-19.5h4.875Zm-9.75,0h-4.875v-19.5h4.875Zm-9.75,0H352.3v-19.5h4.875Zm-9.75,0h-4.875v-19.5h4.875Zm-9.75,0H332.8v-19.5h4.875Z" transform="translate(77 2142.936)" fill="#665eb0"/>
      <path id="Caminho_643" data-name="Caminho 643" d="M327.484-66.168h-4.875v-19.5h4.875Zm-9.75,0h-4.875v-19.5h4.875Zm-9.75,0h-4.875v-19.5h4.875Zm-9.75,0h-4.875v-19.5h4.875Zm-9.75,0h-4.875v-19.5h4.875Zm-9.75,0h-4.875v-19.5h4.875Zm-9.75,0h-4.875v-19.5h4.875Z" transform="translate(77 2142.936)" fill="#665eb0"/>
      <path id="Caminho_644" data-name="Caminho 644" d="M258-66.168h-4.875v-19.5H258Zm-9.75,0h-4.875v-19.5h4.875Zm-9.75,0h-4.875v-19.5H238.5Zm-9.75,0h-4.875v-19.5h4.875Zm-9.75,0h-4.875v-19.5H219Zm-9.75,0h-4.875v-19.5h4.875Zm-9.75,0h-4.875v-19.5H199.5Z" transform="translate(77 2142.936)" fill="#665eb0"/>
      <path id="Caminho_645" data-name="Caminho 645" d="M0,0,35.991-54.359" transform="translate(538.191 2067.018)" fill="none" stroke="#665eb0" stroke-width="2.5"/>
      <path id="Caminho_646" data-name="Caminho 646" d="M0,0H173.779" transform="translate(622.752 2048.752)" fill="none" stroke="#665eb0" stroke-width="2.5"/>
      <path id="Caminho_647" data-name="Caminho 647" d="M0,0V8.681H-133.228L-162.52,35.137H82.913L99.5,55.546h96.8l23.386-31.039H383.612" transform="translate(412.988 2012.129)" fill="none" stroke="#665eb0" stroke-width="2.5"/>
      <path id="Caminho_648" data-name="Caminho 648" d="M0,0H609.531V-130.968H0Z" transform="translate(77 2142.936)" fill="none"/>
    </g>
  </g>
</svg>
